<svg viewBox="0 0 689.96 365.76" xmlns="http://www.w3.org/2000/svg" fill="#ffffff">
  <path
    d="m138.8 118.01c-14.2 32.72-25.53 68.3-38.54 101.46-1.24-4.28-1.8-8.7-.6-13.25 3.57-11.43 7.02-22.33 11.14-33.42.75.43 2.25.48 3.01.9 7-31.26 24.79-57.8 32.51-88.81-.4.4-.71.5-.9.3-.2-.2-.5-.4-.9-.6-10.5 30.35-22.4 56.58-33.42 87 16.69-46.9 33.9-94.38 50.88-140.89.78-1.83 1.93-6.29 2.71-8.13 5.23-6.75 8.36-14.51 10.84-22.58 1.52 1.79 5.41.79 7.23 1.96 3.25 2.24 1.64 6.38-.3 11.29 1.38 0 2.78-.58 4.21-.9.88-.85.62-.95 1.51-1.81 4.03-5.85 13.82-13.93 16.56-5.12 4.21-2 7.23 2.01 9.03 12.04 1 5.82 1.96 12.34 2.86 19.57 1.9 14.95 4.2 30.7 7.53 45.76 4.9 22.19 14.05 41.74 22.43 62.62 2.61 0 4.21.4 4.82 1.2 1.4 1.01 1.91 2.61 1.5 4.82-1.48.04-2.54-.31-3.91-.3 0 .4.05.65.15.75s.15.35.15.75c1.4 0 2.51.1 3.31.3-.36 1.63-.85 3.23 0 4.82h3.31c.77.77 1.04 1.2 1.51 2.11 2.39 3.7 1.46 8.36-.6 11.74 10.53 26.52 6.8 21.05 19.74 46.37 2.99 5.16 7.78 11.46 11.59 16.41 2.81 4.01 14.3 16.56 7.08 19.12-24.18-32.36-25.15-35.83-40.51-73.17 7.65 20.77 18.38 39.92 29.8 59.01 9.32 15.81-1.2-.45 9.2 14.76-1.94.9-3.38.84-4.21 3.01.4.8 1 1.6 1.81 2.41.65 1.5 2.49 2.92 3.31 4.21.76 1.72.7 2.97 1.2 4.52.4 3.61-.5 5.77-2.71 6.47s-4.72.65-7.53-.15c-1.75-.87-3.21-1.66-5.12-2.41-.8-1.2-1.61-2.41-2.41-3.61-14.1-23.17-9.46-12.71-22.45-37.34-7.78-17.16-19.32-35.83-27.09-52.99h-.3c18.28 42.64 24.94 52.09 48.04 91.83-4.82-3.12-9.27-6.56-12.95-11.44-8.39-13.21-16.62-26.1-24.69-39.44.78-.38 1.93-1.13 2.71-1.5-15.88-22.32-6.45-14.84-17.33-39.75h-3.01c11.04 23.89 3.28 16.47 16.73 39.75-14.05-23.48-6.7-16.06-17.93-39.75-21.89-.45-42.31 2.2-63.52 6.62-.68.42-3.23.48-3.91.9-3.21-1-6.52-1.2-9.93-.6-1.63 3.94-2.73 7.76-4.82 11.44-.8 2.01-1.46 4.32-1.96 6.92-.9 4.81-2.24 10.06-3.31 14.6-.5 2.11-1.16 3.57-1.96 4.37-1.83 2.61-2.98 2.39-5.42 1.51 3.23-13.2 6.69-26.6 11.14-39.44.88-1.63.62-2.88 1.51-4.52-.88 1.63-.63 2.89-1.51 4.52-4.89 12.92-8.6 25.61-12.64 38.84-1.7-.73-2.8-2.1-4.82-1.21-.57 1.66-1.25 4.62-1.2 6.02-.6.8-1.41 1.71-2.41 2.71-4.74 4.18-8.56 1.3-11.44-3.01-.89-1.79-1.33-2.55-2.11-4.52l1.2-3.01c7.25-19.47 11.16-38.22 19.27-57.8 6.48-13.77 11.1-30.27 16.86-44.26zm2.11 52.69c-.4.8-.8 2.01-1.2 3.61h.3c.2-.8.5-1.81.9-3.01zm14.75-32.52c-2.03 3.15-3.14 6.36-4.82 9.63l.3-.3c1.63-3.24 2.88-6.09 4.52-9.33zm9.33-7.22c-2.47 5.39-4.87 10.11-7.23 15.65 4.04-.86 8.06-1.16 12.04-2.41 9.12-1.88 18.7-3.72 28-2.41 2.43.45 4.49.15 6.92.6-8.14-20.85-14.86-41.98-19.57-64.12-.86 2.09-.95 3.04-1.81 5.12-5.71 16.32-10.55 32.18-18.36 47.57zm16.86 47.87c12.88-2.05 24.67-1.96 37.63-1.2-.45-.83-.15-1.27-.6-2.11-6.43 0-12.7-.25-18.82-.75s-12.3.35-18.51 2.56c.2.2.3.71.3 1.51zm34.32-8.73c-5.82-.44-12.35.24-18.06.6 6.17.44 12.39.27 18.67.3-.46-.42-.15-.47-.6-.9zm-11.44-35.53c.01 1.67-.54.83-1.5.9.78 2.44 1.93 4.49 2.71 6.92.8-.02 1.6.33 2.41.3l-3.61-8.13zm-.9 12.95c1.2.4 2.21.6 3.01.6-.76-.45-2.26-.15-3.01-.6zm7.22 1.2c-.78-.45-1.93-.15-2.71-.6v.3c.76.45 2.25.15 3.01.6zm9.64 21.68c-.75.03-2.26-.33-3.01-.3 0 .2.05.35.15.45s.15.35.15.75h3.01c0-.2-.05-.35-.15-.45s-.15-.25-.15-.45zm3.31 7.52c-.6-.8-1.01-1.6-1.2-2.41h-2.71c.2.6.5 1.31.9 2.11 1.2 0 2.21.1 3.01.3zm3.01-2.71c.88.76.62 2.25 1.51 3.01h-.3c-.4-.75-.8-2.26-1.2-3.01z" />
  <path
    d="m394.52 226.12c0 .2-.05.15-.15-.15s-.05.05.15 1.05c-.01.39 0 .98.15 1.21.43 3.02-.17 6.64-1.66 9.63-1.01 2.81-2.91 5.62-5.72 8.43.4-.2.8.2 1.2 1.21 2.81-2.21 5.01-5.01 6.62-8.43 1.6-3.21 2.41-6.52 2.41-9.94-.23-.37-.33-1.49-.3-2.41-.2-1.2-.25-1.6-.15-1.2s.15.4.15 0h-.3v-.6l-.3-.9c0-1-.41-2.3-1.2-3.91-.8-2.41-2.21-4.71-4.21-6.92-3.33-4.24-7.95-6.35-12.64-8.13-4.55-1.21-8.81-1.71-13.55-.9 7.76-1.15 14.62-.52 21.38 3.91 3.81 2.21 6.92 5.42 9.33 9.63 1 2.21 1.81 4.21 2.41 6.02v.9l.3.3v.3c.2 1.41.25 1.91.15 1.5-.1-.4-.15-.4-.15 0 .63 1.54.17 4.22 0 5.42-.35 5.24-3.93 12.04-8.13 15.35-3.82 3.29-8.02 4.41-12.34 5.42-3.61.6-7.22.6-10.84 0-4.07-1.05-8.04-2.22-11.74-5.42-1.8-.86-4.82-5.39-5.72-7.23-1.01-2.81-1.31-5.72-.9-8.73l-.6-.6c.45-.88.15-.62.6-1.5 1.15-5.34 4.22-11.57 8.73-14.75 4.62-3.61 9.43-4.92 14.45-3.91 3.35.89 6.89 1.63 9.93 3.61 3.21 2.06 6.76 5.11 7.83 9.03-1.41-5.02-4.32-8.53-8.73-10.54-3.81-2-7.83-2.91-12.04-2.71-4.88.05-9.53 1.45-13.55 4.82-4.42 3.11-7.77 9.09-9.33 14.15-2.33-2.42-2.98-5.88-1.51-9.33 1.84-4.24 5.43-7.9 8.73-10.84 3.23-2.19 7.29-3.91 10.84-4.82.42.73.48 2.58.9 3.31 8.9-3.37 18.09-.66 24.39 6.92 1.56 2 3.13 4.19 3.91 6.62l.9 3.61v.6l.3.6v.3zm-23.18 4.81v-.3h-.3zm.91.6c0-.2.1-.4.3-.6h-.3zm4.81 2.71c.15.15.45.45.6.6-.15-.15-.45-.45-.6-.6z" />
  <path
    d="m432.45 114.73c-.4 1.28-.87.3-1.5.3-.36 29.41-1.67 55.9-2.41 85.5.03-46.3.67-88.4 2.71-134.57v-7.83c2.81-7.95 3.76-14.91 4.21-23.18 1.97 1.41 5.28-.61 7.38 0 3.82 1.25 3.57 4.75 2.86 9.94.75.02 2.6-.12 3.31.3.4-1.6.8-3.01 1.2-4.21 2.2-5.6 8.54-14.63 14.3-8.88 1.5 1.51 2.56 4.06 3.16 7.68.8 4.42 1.15 9.18 1.05 14.3-.19 10.55-.95 21.18-1.5 31.91-.83 20.99 1.4 41.96-1.66 62.77-3.08 21.43-1.62 43.95-3.91 65.33-.47 4.28.58 9.42 1.05 13.85.34 3.77 1.17 7.78.15 10.84-.7 2.68-2.25 2.94-4.52 3.01-1.16-12.69-2.13-24.99-2.11-37.63.45-15.27.96-30.87 3.01-46.06-2.42 15.36-3.41 30.46-3.01 46.06-.43 12.45-.08 24.89.3 37.33-1.65-.38-3.25-.51-4.82.3.65 1.66-.08 4.36.6 6.02-2.52 7.1-7.77 8.1-13.55 3.61l-3.01-3.01.3-3.01c.6-19.23-1.73-36.37-.3-56 1.33-13.73.37-29.69.9-43.35-2.24 32.36-1.08 66.98-3.31 99.35-2.06-3.41-4.23-6.9-4.52-11.14-.43-11.13-.28-21.47-.3-32.51h3.31c-3.87-29.18 3.96-57.79.6-87z" />
  <path
    d="m558.89 226.12c0 .2-.05.15-.15-.15s-.05.05.15 1.05c-.01.39 0 .98.15 1.21.43 3.02-.17 6.64-1.66 9.63-1.01 2.81-2.91 5.62-5.72 8.43.4-.2.8.2 1.2 1.21 2.81-2.21 5.01-5.01 6.62-8.43 1.6-3.21 2.41-6.52 2.41-9.94-.23-.37-.33-1.49-.3-2.41-.2-1.2-.25-1.6-.15-1.2s.15.4.15 0h-.3v-.6l-.3-.9c0-1-.41-2.3-1.2-3.91-.8-2.41-2.21-4.71-4.21-6.92-3.33-4.24-7.95-6.35-12.64-8.13-4.55-1.21-8.81-1.71-13.55-.9 7.76-1.15 14.62-.52 21.38 3.91 3.81 2.21 6.92 5.42 9.33 9.63 1 2.21 1.81 4.21 2.41 6.02v.9l.3.3v.3c.2 1.41.25 1.91.15 1.5-.1-.4-.15-.4-.15 0 .63 1.54.17 4.22 0 5.42-.35 5.24-3.93 12.04-8.13 15.35-3.82 3.29-8.02 4.41-12.34 5.42-3.61.6-7.22.6-10.84 0-4.07-1.05-8.04-2.22-11.74-5.42-1.8-.86-4.82-5.39-5.72-7.23-1.01-2.81-1.31-5.72-.9-8.73l-.6-.6c.45-.88.15-.62.6-1.5 1.15-5.34 4.22-11.57 8.73-14.75 4.62-3.61 9.43-4.92 14.45-3.91 3.35.89 6.89 1.63 9.93 3.61 3.21 2.06 6.76 5.11 7.83 9.03-1.41-5.02-4.32-8.53-8.73-10.54-3.81-2-7.83-2.91-12.04-2.71-4.88.05-9.53 1.45-13.55 4.82-4.42 3.11-7.77 9.09-9.33 14.15-2.33-2.42-2.98-5.88-1.51-9.33 1.84-4.24 5.43-7.9 8.73-10.84 3.23-2.19 7.29-3.91 10.84-4.82.42.73.48 2.58.9 3.31 8.9-3.37 18.09-.66 24.39 6.92 1.56 2 3.13 4.19 3.91 6.62l.9 3.61v.6l.3.6v.3zm-23.18 4.81v-.3h-.3zm.91.6c0-.2.1-.4.3-.6h-.3zm4.81 2.71c.15.15.45.45.6.6-.15-.15-.45-.45-.6-.6z" />
  <path
    d="m58.01 328.2c-7.76 8.15-21.12 9.1-32.52 8.75-.86 0-1.33.57-1.43 1.24-.71 3.74-3.12 14.6-2.95 16.83 0 5.71 5.04 4.56 5.04 7.51 0 1.52-1.43 2.19-3.52 2.19h-19.87c-1.81 0-2.76-.76-2.76-2 0-1.62 1.43-2.09 2.66-2.76 1.52-.76 2.85-1.9 3.71-3.14.95-1.43 1.71-3.42 3.04-10.08.78-4.76 8.1-37.83 8.18-41.75 0-4.28-4.37-3.23-4.37-5.9 0-1.71 1.43-2.28 3.33-2.28h19.4c11.32 0 20.92.38 25.67 6.94 5.46 7.4 2.13 19.11-3.61 24.44zm-7.42-14.55c-.05-10.07-8.79-10.72-17.88-10.46-1.14.1-1.71.57-1.9 1.62l-4.85 23.96c-.18 1.07-.2 1.64.95 1.71h3.8c7.7 0 13.12-1.62 16.64-6.37 2-2.57 3.23-6.75 3.23-10.46z" />
  <path
    d="m115.23 347.5c0 1.14-.38 2.28-1.14 4.28-2.57 6.66-2.28 13.6-9.7 13.6-2.85 0-6.85-.67-15.69-.67h-24.25c-1.81 0-2.85-.86-2.85-2.09 0-1.71 1.62-2.19 2.85-2.76 1.62-.76 2.85-1.9 3.61-3.14.76-1.33 1.71-3.23 3.04-9.79.85-5 7.92-37.97 8.18-42.13 0-3.9-4.47-3.23-4.47-5.8 0-1.52 1.43-2.19 3.42-2.19h18.07c1.9 0 2.76.67 2.76 2.09 0 1.71-2.09 2.09-3.61 2.95-2.38 1.24-3.14 3.04-4.47 9.89-1.37 7.28-7.98 37.47-8.46 42.98 0 3.33 3.23 3.61 6.37 3.61 17.5 0 17.5-13.79 23.39-13.79 1.62 0 2.95 1.05 2.95 2.95z" />
  <path
    d="m187.61 362.43c0 1.52-1.24 2.28-3.52 2.28h-18.35c-1.71 0-2.76-.67-2.76-1.81 0-2.85 4.95-1.9 4.95-6.75 0-1.05-.19-2.28-.48-4.18 0 0-1.43-7.8-1.43-7.8-.09-.57-.38-.86-1.24-.86h-23.11c-.86 0-1.24.29-1.62.95-4.37 7.42-5.8 10.94-5.8 13.03 0 3.33 3.52 3.04 3.52 5.33 0 1.62-1.33 2.09-3.23 2.09h-15.02c-1.9 0-2.85-.67-2.85-1.9 0-1.33 1.24-1.81 2.76-2.66 1.71-.95 3.23-2.38 4.95-4.47 3.87-4.28 34.26-52.37 38.32-58.29.57-.86 1.14-1.24 1.9-1.24h4.85c.95 0 1.43.29 1.62 1.24.09.38 9.7 53.73 9.7 53.73 1.05 4.56 1.43 6.09 2.76 7.42 2 2.09 4.09 1.9 4.09 3.9zm-23.87-25.48c1-.05.92-.48.76-1.33l-3.99-22.54c-.09-.87-.48-.86-.86-.19-3.61 5.42-9.98 15.5-14.64 23.11-.32.45-.28.92.38.95z" />
  <path
    d="m261.06 298.72c0 1.14-1.05 1.81-2.19 2.47-2.19 1.24-3.52 2.09-5.61 4.09-7.72 7.99-17.88 21.19-27.29 32.24-.29.38-.38.67-.48 1.14-.78 3.66-3.04 13.96-2.85 16.26 0 6.09 4.95 4.56 4.95 7.61 0 1.62-1.43 2.19-3.52 2.19h-19.97c-1.81 0-2.66-.86-2.66-2.09 0-1.52 1.33-2 2.66-2.66 4.42-2.18 5.02-4.87 6.85-13.12.14-.84 1.08-5.26 1.14-5.99 0-.29-.1-.57-.38-1.43l-10.08-29.1c-1.33-3.9-2.19-6.09-3.23-7.32-1.71-2.28-3.99-1.81-3.99-4.09 0-1.33 1.43-2.09 3.61-2.09h17.88c1.71 0 2.66.67 2.66 1.9 0 2.57-4.94 2-4.94 6.09 0 1.05.29 2.38.86 3.99l7.61 21.68c.19.57.29.86.57.86.19 0 .38-.19.86-.76 2.76-3.23 8.46-10.36 12.93-16.07 3.8-5.04 6.09-8.46 6.09-10.37 0-3.23-3.52-2.85-3.52-5.23 0-1.24 1.24-2.09 3.33-2.09h15.88c1.9 0 2.85.76 2.85 1.9z" />
  <path
    d="m317.61 333.81c0 1.9-2.19 2.28-3.8 3.04-2.47 1.24-3.23 3.23-4.56 9.89l-1.9 9.03c-.48 2.28-1.05 3.52-3.23 4.85-3.9 2.47-11.03 5.13-19.21 5.13-47.78-2.28-35.29-70.55 13.5-70.08 6.28 0 12.65 1.14 16.07 3.52 1.9 1.33 2.57 3.23 2.57 5.51 0 1.9-.48 4.56-.95 6.28-.86 2.95-1.52 4.75-3.8 4.75-2.09 0-2.85-1.14-3.8-3.52-1.9-4.47-4.94-9.98-13.31-9.98-17.12 0-26.63 19.49-26.63 35.09-.3 13.78 9.26 24.58 23.39 20.63 1.9-.57 2.28-.86 2.66-2.57l1.81-8.65c.47-2.57.86-4.37.86-5.8 0-5.33-6.28-3.8-6.28-6.75 0-1.71 1.43-2.38 3.42-2.38h20.35c1.9 0 2.76.76 2.85 2z" />
  <path
    d="m383.13 362.53c0 1.71-1.62 2.19-3.14 2.19h-7.13c-3.04 0-4.75-.48-6.09-2.47-1.71-2.38-2.57-7.51-4.75-15.59-2.47-9.6-5.04-12.93-10.94-13.41-2.07-.14-3.12-.15-5.04 0-.76.09-1.14.57-1.33 1.43l-2.47 12.08c-.86 4.37-1.14 6.75-1.14 8.18 0 6.18 4.95 4.66 4.95 7.61 0 1.52-1.43 2.19-3.42 2.19h-20.06c-1.81 0-2.76-.76-2.76-2 0-1.71 1.81-2.28 2.85-2.76 4.14-1.9 4.98-5.19 6.75-13.22.56-3.48 8.15-39.26 8.18-41.75 0-4.28-4.47-3.33-4.47-5.99 0-1.52 1.43-2.19 3.33-2.19h23.2c7.61 0 16.26.19 20.83 4.66 2.47 2.47 3.42 5.61 3.42 8.84 0 11.22-9.03 17.97-20.63 19.02-.81.1-.93.95-.19 1.14 5.99 1.14 8.84 3.9 11.79 14.83 2.85 10.37 3.8 12.84 6.09 14.55.95.76 2.19 1.33 2.19 2.66zm-30.53-35.76c9.32 0 17.21-4.66 17.21-14.93 0-7.13-5.99-8.65-12.17-8.65h-4.85c-1.24 0-1.81.48-2 1.62l-4.18 20.25c-.09.47-.09.57-.09.67 0 .57.19 1.05 1.05 1.05h5.04z" />
  <path
    d="m462.68 323.44c0 23.3-19.3 42.32-42.22 42.32-46.6-1.25-30.57-70.64 14.17-70.08 17.69 0 28.05 11.7 28.05 27.77zm-30.24-21.2c-14.64 0-25.87 16.36-25.87 35.56.38 35.84 42.3 23.73 41.94-14.07 0-13.03-5.8-21.49-16.07-21.49z" />
  <path
    d="m544.31 299.01c-.09 1.71-2.09 2.28-3.99 3.23-3.14 1.52-4.75 3.42-6.56 10.55-.86 3.33-4.47 20.35-5.9 27.29-2.95 15.82-13.95 25.42-31.29 25.67-17.24-.12-26.69-9.08-22.06-27.1.75-4.6 6.3-29.36 6.37-33.38 0-1.62-.38-2.85-1.62-3.61s-2.76-1.14-2.76-2.57c0-1.71 1.43-2.28 3.33-2.28h18.35c1.9 0 2.76.76 2.76 2 0 1.81-2.09 2.19-3.71 3.04-2.38 1.24-3.04 3.14-4.47 9.79-.86 4.28-4.85 23.96-5.23 26.25-2.6 10.64.36 19.24 13.03 19.3 11.03 0 18.07-6.18 20.73-18.16 2.05-10.29 5.06-22.24 5.51-30.81 0-7.61-6.18-5.71-6.18-9.03 0-1.71 1.33-2.38 3.71-2.38h16.64c2.28 0 3.33.67 3.33 2.19z" />
  <path
    d="m620.64 298.91c0 2-2.28 2.57-3.9 3.33-3.14 1.52-4.95 3.52-6.66 10.55-2 8.18-10.08 47.93-10.75 51.16-.09.86-.57 1.43-1.9 1.43h-5.33c-1.24 0-1.62-.48-2-1.24l-24.63-49.16c-.19-.38-.38-.38-.48-.38-.19 0-.29.1-.38.38-2.09 9.51-6.56 31-6.56 37.37 0 3.9 1.14 5.71 3.71 7.13 1.62.95 3.23 1.24 3.23 3.04 0 1.52-1.33 2.19-3.52 2.19h-18.64c-2 0-3.23-.67-3.23-2.28 0-1.52 1.43-1.9 3.71-2.95 3.52-1.71 5.61-3.71 7.42-10.94 1.43-5.42 8.37-39.18 9.03-42.32.37-1.87-.49-2.37-2.85-3.8-2.38-1.33-3.99-1.71-3.99-3.42 0-1.52 1.43-2.19 3.14-2.19h11.79c2.19 0 3.04.67 3.71 2l23.87 47.64c.09.19.19.38.48.38s.38-.19.47-.47c2.61-14.04 6.11-27.9 6.85-38.13 0-7.61-6.18-5.52-6.18-9.13 0-1.62 1.33-2.28 3.71-2.28h16.64c2.19 0 3.23.67 3.23 2.09z" />
  <path
    d="m689.96 323.54c-1.21 25.59-18.37 41.02-48.02 41.18-6.85 0-22.06 0-22.06 0-1.9 0-2.85-.76-2.85-2 0-1.9 1.81-2.28 3.14-3.04 1.52-.76 2.66-2 3.23-2.95.86-1.33 1.71-3.23 3.04-9.79.82-4.92 8.08-38.03 8.18-42.13 0-4.09-4.47-3.23-4.47-5.8 0-1.52 1.43-2.19 3.42-2.19 21.69.51 55.96-4.91 56.39 26.72zm-13.88-.67c-.11-16.41-9.95-20.07-25.77-19.59-1.9 0-2.38.66-2.76 2.28-.99 5.76-9.32 44.67-9.7 49.35 0 2.85 2.47 3.14 5.52 3.14 20.02 1.09 32.57-15.49 32.71-35.18z" />
</svg>
