<svg viewBox="0 0 717.87 391.56" xmlns="http://www.w3.org/2000/svg" fill="#ffffff">
  <path
    d="m342.45 236.4s-1.2 10.4-3.6 12.8-10.4 2.4-12.8 5.6-2.4 7.6-4.8 8.8-3.6 4.8-5.6 6c-1.6 1.6-5.6 7.6-7.6 7.2-1.6-.8-4.8-2.8-8.4-6.4-3.2-3.6-9.2-10-11.2-12-1.6-1.6-8.4-11.2-8.4-11.2l-15.2-24.8c-6.8 2.8-15.2 5.6-17.2 6-3.6.8-11.2 5.2-18 6.4-6.4 1.2-28.8 7.6-33.2 7.6-4 0-16.4 1.6-22.8 2.8-6.8 1.6-22 5.2-24 4.4-1.6-.4-11.2-11.6-12.8-13.6-1.2-1.2-4.8-4-7.6-6.4-2.4 4.8-5.2 8.8-7.2 12-2.4 3.6-8 7.6-11.6 10.8-3.2 2.8-6.8 13.6-6.8 13.6s-8 6.4-9.6 9.2c-1.6 3.2-6.4 6.4-6.8 7.6-.4 1.6-10-.4-12 1.6s-7.2 2.4-7.2 2.4l-17.2-8.4s-3.2-11.6-2-13.6c.8-2 8.4-11.2 10-14.4s2.4-8.8 2.4-10.4 5.2-5.2 6-8c1.2-2.4 1.6-8 4-11.6s6.8-11.6 7.6-12.8c.4-1.6 12-25.2 12-28 0-3.2 2.8-4.8 2.8-4.8s9.6-7.6 10-9.2c.8-1.6 2-7.2 2-7.2s2.4-7.6 2.8-8.8c.8-1.6 4-10 6.8-12.4 3.2-2.4 8.4-11.6 10.4-13.6 2-2.4 17.6-22.4 21.2-28.8 3.2-6 4-4.4 6.4-8s3.2-8 6-14.4c2-4 5.6-10.4 8-14.8l-3.2-7.6c-2-1.6-6-8.8-6-11.2s4.8-6 5.2-8c.8-2 2-8 2-10s4.8-8.8 4.8-8.8l6.8-8 8-4 6.4 4 7.2 1.2s4.8-2.8 8.4-.8c3.2 2 4.4 4 7.6 8.4 2.8 4 12.8 12.8 12.8 12.8s15.2 26.4 15.6 29.6c.8 3.2 11.2 12 12 14.4.4 2.4 20.8 24.8 23.2 30 2 4.8 9.2 18 11.6 23.2 2.4 4.8 10 14.8 10.8 16.8.4 2 6.4 13.2 8.4 16.4 1.6 3.2 6.4 15.6 8 18.8 2 2.8 5.6 11.2 7.2 12.8 2 2 8 10.4 8 10.4s2.8 5.6 1.6 8-.8 12-.8 15.6 4.8 10.8 4.8 10.8zm-131.2-63.6s11.6-2.8 18-4.8c-.8-2.8-1.6-5.6-2-7.6-.4-5.6.8-8.4-2-11.2-3.2-3.2-12-18.4-14.4-20.8-2-2-8.8-14.8-11.2-18.8-.8 1.6-2 2.8-2.8 4-2.4 4.4-6.8 12-10 19.6s-6.8 7.2-13.2 16.8c-6 9.6-8.8 13.2-11.6 17.6-.8 2-4.8 10-9.2 18 6.8-2 12.4-3.6 13.6-3.6 2.4.8 9.2.8 12.8.8s15.6-5.6 15.6-5.6z" />
  <path
    d="m448.45 251.6c.8 2 1.2 5.2.4 7.2-.8 2.4-5.6 4-7.2 6-2 1.6-6 2-8.4 3.6s-5.6 2.8-7.2 4.4c-2 1.2-9.6 4-11.2 5.6-1.2 1.2-10.4 3.6-11.6 4-1.6.8-11.6 3.6-11.6 3.6l-8.8-5.2s-6-5.6-7.2-7.2c-1.6-1.6-6.4-6.8-8.8-8.8-4.4-4.4-8.4-5.6-5.6-12.4 3.2-5.6-7.2-5.2 8-14 1.6-1.2 5.6-4.8 5.6-4.8s7.2-3.6 8.4-3.6c1.6 0 8.8-4.8 11.6-6.8s6.8-2.8 8.8-2.8c1.6 0 15.6-1.2 17.6-1.6l4 2.4s4.8 2 6.8 3.2c1.6 1.6 5.2 5.6 5.2 7.2s2.4 2.4 5.2 5.2 4 4.4 4 7.2 1.2 5.2 2 7.6z" />
  <path
    d="m547.25 153.2c0 1.6 1.6 12 1.6 16 0 3.6 0 15.6.4 20s1.6 13.2 2.4 20.4c.4 7.2.4 10.4.8 13.2s3.2 9.2 4.4 11.6 1.2 10.4 2.4 14.8c.8 4-1.6 4-1.6 6.8 0 3.2-2.4 7.6-2.4 11.6 0 3.6-1.6 5.6-2.4 10s-3.6 5.2-3.6 5.2-5.2-2-7.2-3.2c-1.6-1.6-8 0-9.6-1.2-1.2-.8-9.6 0-11.2 0-1.2 0-4.4-4-4.4-4s-3.2-3.6-6.4-6.8c-2.8-3.2-4 2.4-5.2 5.2s-6.8-2.4-8.8-2.8c-2.4-.4-12.8-12.8-14.4-15.6-2-2.8.4-7.6.4-7.6s.4-7.6.8-9.6-.8-5.6-.8-5.6-2-4.8-3.2-5.2c-1.6-.8-2-4.4-1.6-6.4.8-2 2.8-8.8 4.4-13.6 1.2-4.8-.8-11.2-.8-16.4s.8-14.8 0-18c-.4-3.2-.8-12.4-.8-18.8 0-6.8-.8-19.6-.4-22.4s1.2-20.4.8-30.4 0-12 .4-16.8l2.4-14.4c.8-4.8-1.6-11.2-1.2-12.8.4-1.2 0-10 0-10s.8-2.8 1.2-4c.4-1.6 1.2-3.6 2.8-3.6 1.2 0 6.8-3.6 8.4-6 2-2.4 4-7.6 5.6-8.8 1.2-.8 6.4-5.2 8.4-5.2 1.6 0 7.2-2.4 8.8-2.8 2-.4 6-2.8 6-2.8s5.2 2 6.4 3.2c.8 1.6 5.2 4.4 6.8 4.8 1.2.4 6.4 6 6.4 6v6c0 2 .8 7.6.8 10.4-.49 8.62-3.7 9.88 3.2 16.4 0 0-2 16.4-1.6 19.2s0 11.6 0 15.2c0 4-.8 8.8-1.2 12.8-.4 4.4.4 8.4.8 11.2s.8 12.8.8 12.8 1.2 20 1.2 22z" />
  <path
    d="m668.45 251.6c.8 2 1.2 5.2.4 7.2-.8 2.4-5.6 4-7.2 6-2 1.6-6 2-8.4 3.6s-5.6 2.8-7.2 4.4c-2 1.2-9.6 4-11.2 5.6-1.2 1.2-10.4 3.6-11.6 4-1.6.8-11.6 3.6-11.6 3.6l-8.8-5.2s-6-5.6-7.2-7.2c-1.6-1.6-6.4-6.8-8.8-8.8-4.4-4.4-8.4-5.6-5.6-12.4 3.2-5.6-7.2-5.2 8-14 1.6-1.2 5.6-4.8 5.6-4.8s7.2-3.6 8.4-3.6c1.6 0 8.8-4.8 11.6-6.8s6.8-2.8 8.8-2.8c1.6 0 15.6-1.2 17.6-1.6l4 2.4s4.8 2 6.8 3.2c1.6 1.6 5.2 5.6 5.2 7.2s2.4 2.4 5.2 5.2 4 4.4 4 7.2 1.2 5.2 2 7.6z" />
  <path
    d="m60.35 352.06c-8.1 8.58-21.93 9.56-33.84 9.2-.89 0-1.39.6-1.48 1.3-.74 3.93-3.25 15.36-3.07 17.7 0 6 5.24 4.8 5.24 7.9 0 1.6-1.48 2.3-3.66 2.3h-20.67c-1.88 0-2.87-.8-2.87-2.1 0-1.7 1.48-2.2 2.77-2.9 1.58-.8 2.97-2 3.86-3.3.99-1.5 1.78-3.6 3.17-10.6.81-5.01 8.43-39.78 8.51-43.9 0-4.5-4.55-3.4-4.55-6.2 0-1.8 1.48-2.4 3.46-2.4h20.18c11.77 0 21.77.4 26.71 7.3 5.67 7.77 2.22 20.1-3.76 25.7zm-7.72-15.3c-.07-10.58-9.06-11.27-18.6-11-1.19.1-1.78.6-1.98 1.7l-5.04 25.2c-.19 1.1-.21 1.73.99 1.8h3.96c8.01 0 13.65-1.7 17.31-6.7 2.08-2.7 3.36-7.1 3.36-11z" />
  <path
    d="m119.89 372.36c0 1.2-.39 2.4-1.19 4.5-2.67 7-2.37 14.3-10.09 14.3-2.97 0-7.12-.7-16.33-.7h-25.23c-1.88 0-2.97-.9-2.97-2.2 0-1.8 1.68-2.3 2.97-2.9 1.68-.8 2.97-2 3.76-3.3.79-1.4 1.78-3.4 3.17-10.3.88-5.26 8.24-39.94 8.51-44.3 0-4.1-4.65-3.4-4.65-6.1 0-1.6 1.48-2.3 3.56-2.3h18.8c1.98 0 2.87.7 2.87 2.2 0 1.8-2.18 2.2-3.76 3.1-2.47 1.3-3.27 3.2-4.65 10.4-1.43 7.66-8.31 39.4-8.81 45.2 0 3.5 3.36 3.8 6.63 3.8 18.2 0 18.2-14.5 24.34-14.5 1.68 0 3.07 1.1 3.07 3.1z" />
  <path
    d="m195.2 388.06c0 1.6-1.29 2.4-3.66 2.4h-19.1c-1.78 0-2.87-.7-2.87-1.9 0-3 5.14-2 5.14-7.1 0-1.1-.2-2.4-.49-4.4l-1.48-8.2c-.1-.6-.39-.9-1.29-.9h-24.04c-.89 0-1.29.3-1.68 1-4.55 7.8-6.04 11.5-6.04 13.7 0 3.5 3.66 3.2 3.66 5.6 0 1.7-1.38 2.2-3.36 2.2h-15.63c-1.98 0-2.97-.7-2.97-2 0-1.4 1.29-1.9 2.87-2.8 1.78-1 3.36-2.5 5.14-4.7 4.03-4.51 35.65-55.08 39.87-61.3.59-.9 1.19-1.3 1.98-1.3h5.05c.99 0 1.48.3 1.68 1.3.1.4 10.09 56.5 10.09 56.5 1.09 4.8 1.48 6.4 2.87 7.8 2.08 2.2 4.25 2 4.25 4.1zm-24.83-26.8c1.04-.05.95-.51.79-1.4l-4.16-23.7c-.1-.92-.49-.91-.89-.2-3.76 5.7-10.39 16.3-15.24 24.3-.33.47-.29.97.4 1z" />
  <path
    d="m271.61 321.06c0 1.2-1.09 1.9-2.28 2.6-2.28 1.3-3.66 2.2-5.84 4.3-8.04 8.41-18.61 22.29-28.39 33.9-.3.4-.4.7-.49 1.2-.81 3.85-3.16 14.68-2.97 17.1 0 6.4 5.14 4.8 5.14 8 0 1.7-1.48 2.3-3.66 2.3h-20.78c-1.88 0-2.77-.9-2.77-2.2 0-1.6 1.38-2.1 2.77-2.8 4.61-2.3 5.23-5.14 7.12-13.8.15-.89 1.13-5.54 1.19-6.3 0-.3-.1-.6-.39-1.5l-10.49-30.6c-1.38-4.1-2.28-6.4-3.36-7.7-1.78-2.4-4.16-1.9-4.16-4.3 0-1.4 1.48-2.2 3.76-2.2h18.6c1.78 0 2.77.7 2.77 2 0 2.7-5.14 2.1-5.14 6.4 0 1.1.3 2.5.89 4.2l7.91 22.8c.2.6.3.9.59.9.2 0 .4-.2.89-.8 2.87-3.4 8.8-10.9 13.46-16.9 3.96-5.3 6.33-8.9 6.33-10.9 0-3.4-3.66-3-3.66-5.5 0-1.3 1.29-2.2 3.46-2.2h16.52c1.98 0 2.97.8 2.97 2z" />
  <path
    d="m330.46 357.96c0 2-2.28 2.4-3.96 3.2-2.57 1.3-3.37 3.4-4.75 10.4l-1.98 9.5c-.49 2.4-1.09 3.7-3.36 5.1-4.06 2.6-11.48 5.4-19.99 5.4-49.71-2.39-36.72-74.19 14.05-73.7 6.53 0 13.16 1.2 16.72 3.7 1.98 1.4 2.67 3.4 2.67 5.8 0 2-.49 4.8-.99 6.6-.89 3.1-1.58 5-3.96 5-2.18 0-2.97-1.2-3.96-3.7-1.98-4.7-5.14-10.5-13.85-10.5-17.81 0-27.7 20.5-27.7 36.9-.31 14.46 9.59 25.84 24.34 21.7 1.98-.6 2.37-.9 2.77-2.7l1.88-9.1c.49-2.7.89-4.6.89-6.1 0-5.6-6.53-4-6.53-7.1 0-1.8 1.48-2.5 3.56-2.5h21.17c1.98 0 2.87.8 2.97 2.1z" />
  <path
    d="m398.62 388.16c0 1.8-1.68 2.3-3.27 2.3h-7.42c-3.17 0-4.95-.5-6.33-2.6-1.78-2.5-2.67-7.9-4.95-16.4-2.57-10.1-5.24-13.6-11.38-14.1-2.16-.14-3.25-.16-5.24 0-.79.1-1.19.6-1.38 1.5-.83 4.35-3.93 18.16-3.76 21.3 0 6.5 5.14 4.9 5.14 8 0 1.6-1.48 2.3-3.56 2.3h-20.88c-1.88 0-2.87-.8-2.87-2.1 0-1.8 1.88-2.4 2.97-2.9 4.31-2 5.19-5.48 7.03-13.9.58-3.66 8.48-41.29 8.51-43.9 0-4.5-4.65-3.5-4.65-6.3 0-1.6 1.48-2.3 3.46-2.3h24.14c7.91 0 16.92.2 21.67 4.9 2.57 2.6 3.56 5.9 3.56 9.3 0 11.8-9.4 18.9-21.47 20-.85.1-.96 1-.2 1.2 6.23 1.2 9.2 4.1 12.27 15.6 2.97 10.9 3.96 13.5 6.33 15.3.99.8 2.28 1.4 2.28 2.8zm-31.75-37.6c9.7 0 17.91-4.9 17.91-15.7 0-7.5-6.23-9.1-12.66-9.1h-5.05c-1.29 0-1.88.5-2.08 1.7l-4.35 21.3c-.1.5-.1.6-.1.7 0 .6.2 1.1 1.09 1.1z" />
  <path
    d="m481.39 347.06c0 24.5-20.09 44.5-43.93 44.5-48.48-1.32-31.81-74.29 14.74-73.7 18.4 0 29.19 12.3 29.19 29.2zm-31.46-22.3c-15.24 0-26.91 17.2-26.91 37.4.4 37.71 44.02 24.93 43.63-14.8 0-13.7-6.03-22.6-16.72-22.6z" />
  <path
    d="m566.33 321.36c-.1 1.8-2.18 2.4-4.16 3.4-3.27 1.6-4.95 3.6-6.83 11.1-.89 3.5-4.65 21.4-6.13 28.7-3.03 16.55-14.47 26.75-32.55 27-18.02-.12-27.75-9.63-22.95-28.5.78-4.84 6.55-30.88 6.63-35.1 0-1.7-.4-3-1.68-3.8-1.29-.8-2.87-1.2-2.87-2.7 0-1.8 1.48-2.4 3.46-2.4h19.09c1.98 0 2.87.8 2.87 2.1 0 1.9-2.18 2.3-3.86 3.2-2.47 1.3-3.17 3.3-4.65 10.3-.89 4.5-5.04 25.2-5.44 27.6-2.67 11.18.3 20.2 13.55 20.3 11.48 0 18.8-6.5 21.57-19.1 2.13-10.82 5.27-23.39 5.74-32.4 0-8-6.43-6-6.43-9.5 0-1.8 1.38-2.5 3.86-2.5h17.31c2.37 0 3.46.7 3.46 2.3z" />
  <path
    d="m645.74 321.26c0 2.1-2.37 2.7-4.06 3.5-3.26 1.6-5.14 3.7-6.93 11.1-2.08 8.6-10.49 50.4-11.18 53.8-.1.9-.59 1.5-1.98 1.5h-5.54c-1.29 0-1.68-.5-2.08-1.3l-25.62-51.7c-.2-.4-.4-.4-.5-.4-.2 0-.3.1-.39.4-2.18 10-6.83 32.6-6.83 39.3 0 4.1 1.19 6 3.86 7.5 1.68 1 3.36 1.3 3.36 3.2 0 1.6-1.38 2.3-3.66 2.3h-19.39c-2.08 0-3.36-.7-3.36-2.4 0-1.6 1.48-2 3.86-3.1 3.66-1.8 5.84-3.9 7.72-11.5 1.48-5.7 8.71-41.2 9.4-44.5.39-1.96-.51-2.49-2.97-4-2.47-1.4-4.16-1.8-4.16-3.6 0-1.6 1.48-2.3 3.27-2.3h12.27c2.28 0 3.17.7 3.86 2.1l24.83 50.1c.1.2.2.4.5.4s.39-.2.49-.5c2.71-14.76 6.36-29.34 7.12-40.1 0-8-6.43-5.8-6.43-9.6 0-1.7 1.38-2.4 3.86-2.4h17.31c2.28 0 3.36.7 3.36 2.2z" />
  <path
    d="m717.87 347.16c-1.23 26.75-18.99 43.16-49.96 43.3-7.13 0-22.96 0-22.96 0-1.98 0-2.97-.8-2.97-2.1 0-2 1.88-2.4 3.26-3.2 1.58-.8 2.77-2.1 3.37-3.1.89-1.4 1.78-3.4 3.17-10.3.86-5.17 8.41-40 8.51-44.3 0-4.3-4.65-3.4-4.65-6.1 0-1.6 1.48-2.3 3.56-2.3 22.79.51 58.22-5.08 58.67 28.1zm-14.44-.7c-.12-17.17-10.22-21.11-26.81-20.6-1.98 0-2.47.7-2.87 2.4-1.03 6.06-9.7 46.98-10.09 51.9 0 3 2.57 3.3 5.74 3.3 20.95 1.14 33.89-16.43 34.04-37z" />
</svg>
