<svg viewBox="0 0 620.7 286.8" xmlns="http://www.w3.org/2000/svg" fill="#ffffff">
  <path
    d="m293.86 236.4s-1.2 10.4-3.6 12.8-10.4 2.4-12.8 5.6-2.4 7.6-4.8 8.8-3.6 4.8-5.6 6c-1.6 1.6-5.6 7.6-7.6 7.2-1.6-.8-4.8-2.8-8.4-6.4-3.2-3.6-9.2-10-11.2-12-1.6-1.6-8.4-11.2-8.4-11.2l-15.2-24.8c-6.8 2.8-15.2 5.6-17.2 6-3.6.8-11.2 5.2-18 6.4-6.4 1.2-28.8 7.6-33.2 7.6-4 0-16.4 1.6-22.8 2.8-6.8 1.6-22 5.2-24 4.4-1.6-.4-11.2-11.6-12.8-13.6-1.2-1.2-4.8-4-7.6-6.4-2.4 4.8-5.2 8.8-7.2 12-2.4 3.6-8 7.6-11.6 10.8-3.2 2.8-6.8 13.6-6.8 13.6s-8 6.4-9.6 9.2c-1.6 3.2-6.4 6.4-6.8 7.6-.4 1.6-10-.4-12 1.6s-7.2 2.4-7.2 2.4l-17.2-8.4s-3.2-11.6-2-13.6c.8-2 8.4-11.2 10-14.4s2.4-8.8 2.4-10.4 5.2-5.2 6-8c1.2-2.4 1.6-8 4-11.6s6.8-11.6 7.6-12.8c.4-1.6 12-25.2 12-28 0-3.2 2.8-4.8 2.8-4.8s9.6-7.6 10-9.2c.8-1.6 2-7.2 2-7.2s2.4-7.6 2.8-8.8c.8-1.6 4-10 6.8-12.4 3.2-2.4 8.4-11.6 10.4-13.6 2-2.4 17.6-22.4 21.2-28.8 3.2-6 4-4.4 6.4-8s3.2-8 6-14.4c2-4 5.6-10.4 8-14.8l-3.2-7.6c-2-1.6-6-8.8-6-11.2s4.8-6 5.2-8c.8-2 2-8 2-10s4.8-8.8 4.8-8.8l6.8-8 8-4 6.4 4 7.2 1.2s4.8-2.8 8.4-.8c3.2 2 4.4 4 7.6 8.4 2.8 4 12.8 12.8 12.8 12.8s15.2 26.4 15.6 29.6c.8 3.2 11.2 12 12 14.4.4 2.4 20.8 24.8 23.2 30 2 4.8 9.2 18 11.6 23.2 2.4 4.8 10 14.8 10.8 16.8.4 2 6.4 13.2 8.4 16.4 1.6 3.2 6.4 15.6 8 18.8 2 2.8 5.6 11.2 7.2 12.8 2 2 8 10.4 8 10.4s2.8 5.6 1.6 8-.8 12-.8 15.6 4.8 10.8 4.8 10.8zm-131.19-63.6s11.6-2.8 18-4.8c-.8-2.8-1.6-5.6-2-7.6-.4-5.6.8-8.4-2-11.2-3.2-3.2-12-18.4-14.4-20.8-2-2-8.8-14.8-11.2-18.8-.8 1.6-2 2.8-2.8 4-2.4 4.4-6.8 12-10 19.6s-6.8 7.2-13.2 16.8c-6 9.6-8.8 13.2-11.6 17.6-.8 2-4.8 10-9.2 18 6.8-2 12.4-3.6 13.6-3.6 2.4.8 9.2.8 12.8.8s15.6-5.6 15.6-5.6z" />
  <path
    d="m399.86 251.6c.8 2 1.2 5.2.4 7.2-.8 2.4-5.6 4-7.2 6-2 1.6-6 2-8.4 3.6s-5.6 2.8-7.2 4.4c-2 1.2-9.6 4-11.2 5.6-1.2 1.2-10.4 3.6-11.6 4-1.6.8-11.6 3.6-11.6 3.6l-8.8-5.2s-6-5.6-7.2-7.2c-1.6-1.6-6.4-6.8-8.8-8.8-4.4-4.4-8.4-5.6-5.6-12.4 3.2-5.6-7.2-5.2 8-14 1.6-1.2 5.6-4.8 5.6-4.8s7.2-3.6 8.4-3.6c1.6 0 8.8-4.8 11.6-6.8s6.8-2.8 8.8-2.8c1.6 0 15.6-1.2 17.6-1.6l4 2.4s4.8 2 6.8 3.2c1.6 1.6 5.2 5.6 5.2 7.2s2.4 2.4 5.2 5.2 4 4.4 4 7.2 1.2 5.2 2 7.6z" />
  <path
    d="m498.66 153.2c0 1.6 1.6 12 1.6 16 0 3.6 0 15.6.4 20s1.6 13.2 2.4 20.4c.4 7.2.4 10.4.8 13.2s3.2 9.2 4.4 11.6 1.2 10.4 2.4 14.8c.8 4-1.6 4-1.6 6.8 0 3.2-2.4 7.6-2.4 11.6 0 3.6-1.6 5.6-2.4 10s-3.6 5.2-3.6 5.2-5.2-2-7.2-3.2c-1.6-1.6-8 0-9.6-1.2-1.2-.8-9.6 0-11.2 0-1.2 0-4.4-4-4.4-4s-3.2-3.6-6.4-6.8c-2.8-3.2-4 2.4-5.2 5.2s-6.8-2.4-8.8-2.8c-2.4-.4-12.8-12.8-14.4-15.6-2-2.8.4-7.6.4-7.6s.4-7.6.8-9.6-.8-5.6-.8-5.6-2-4.8-3.2-5.2c-1.6-.8-2-4.4-1.6-6.4.8-2 2.8-8.8 4.4-13.6 1.2-4.8-.8-11.2-.8-16.4s.8-14.8 0-18c-.4-3.2-.8-12.4-.8-18.8 0-6.8-.8-19.6-.4-22.4s1.2-20.4.8-30.4 0-12 .4-16.8l2.4-14.4c.8-4.8-1.6-11.2-1.2-12.8.4-1.2 0-10 0-10s.8-2.8 1.2-4c.4-1.6 1.2-3.6 2.8-3.6 1.2 0 6.8-3.6 8.4-6 2-2.4 4-7.6 5.6-8.8 1.2-.8 6.4-5.2 8.4-5.2 1.6 0 7.2-2.4 8.8-2.8 2-.4 6-2.8 6-2.8s5.2 2 6.4 3.2c.8 1.6 5.2 4.4 6.8 4.8 1.2.4 6.4 6 6.4 6v6c0 2 .8 7.6.8 10.4-.49 8.62-3.7 9.88 3.2 16.4 0 0-2 16.4-1.6 19.2s0 11.6 0 15.2c0 4-.8 8.8-1.2 12.8-.4 4.4.4 8.4.8 11.2s.8 12.8.8 12.8 1.2 20 1.2 22z" />
  <path
    d="m619.86 251.6c.8 2 1.2 5.2.4 7.2-.8 2.4-5.6 4-7.2 6-2 1.6-6 2-8.4 3.6s-5.6 2.8-7.2 4.4c-2 1.2-9.6 4-11.2 5.6-1.2 1.2-10.4 3.6-11.6 4-1.6.8-11.6 3.6-11.6 3.6l-8.8-5.2s-6-5.6-7.2-7.2c-1.6-1.6-6.4-6.8-8.8-8.8-4.4-4.4-8.4-5.6-5.6-12.4 3.2-5.6-7.2-5.2 8-14 1.6-1.2 5.6-4.8 5.6-4.8s7.2-3.6 8.4-3.6c1.6 0 8.8-4.8 11.6-6.8s6.8-2.8 8.8-2.8c1.6 0 15.6-1.2 17.6-1.6l4 2.4s4.8 2 6.8 3.2c1.6 1.6 5.2 5.6 5.2 7.2s2.4 2.4 5.2 5.2 4 4.4 4 7.2 1.2 5.2 2 7.6z" />
</svg>
