<svg viewBox="0 0 464.13 275.21" xmlns="http://www.w3.org/2000/svg" fill="#ffffff">
  <path
    d="m39.8 118.01c-14.19 32.72-25.53 68.3-38.53 101.46-1.24-4.28-1.8-8.7-.6-13.25 3.57-11.43 7.02-22.33 11.14-33.42.75.43 2.25.48 3.01.9 7-31.26 24.79-57.8 32.51-88.81-.4.4-.71.5-.9.3-.2-.2-.5-.4-.9-.6-10.5 30.35-22.4 56.58-33.42 87 16.68-46.89 33.89-94.37 50.87-140.88.78-1.83 1.93-6.29 2.71-8.13 5.23-6.75 8.36-14.51 10.84-22.58 1.52 1.79 5.41.79 7.23 1.96 3.25 2.24 1.64 6.38-.3 11.29 1.38 0 2.78-.58 4.21-.9.88-.85.62-.95 1.51-1.81 4.03-5.85 13.82-13.93 16.56-5.12 4.21-2 7.23 2.01 9.03 12.04 1 5.82 1.96 12.34 2.86 19.57 1.9 14.95 4.2 30.7 7.53 45.76 4.9 22.19 14.05 41.74 22.43 62.62 2.61 0 4.21.4 4.82 1.2 1.4 1.01 1.91 2.61 1.5 4.82-1.48.04-2.54-.31-3.91-.3 0 .4.05.65.15.75s.15.35.15.75c1.4 0 2.51.1 3.31.3-.36 1.63-.85 3.23 0 4.82h3.31c.77.77 1.04 1.2 1.51 2.11 2.39 3.7 1.46 8.36-.6 11.74 10.53 26.52 6.8 21.05 19.74 46.37 2.99 5.16 7.78 11.46 11.59 16.41 2.81 4.01 14.3 16.56 7.08 19.12-24.18-32.36-25.15-35.83-40.51-73.17 7.65 20.77 18.38 39.92 29.8 59.01 9.32 15.81-1.2-.45 9.2 14.76-1.94.9-3.38.84-4.21 3.01.4.8 1 1.6 1.81 2.41.65 1.5 2.49 2.92 3.31 4.21.76 1.72.7 2.97 1.2 4.52.4 3.61-.5 5.77-2.71 6.47s-4.72.65-7.53-.15c-1.75-.87-3.21-1.66-5.12-2.41-.8-1.2-1.61-2.41-2.41-3.61-14.1-23.17-9.46-12.71-22.45-37.34-7.78-17.16-19.32-35.83-27.09-52.99h-.3c18.28 42.64 24.94 52.09 48.04 91.83-4.82-3.12-9.27-6.56-12.95-11.44-8.39-13.21-16.62-26.1-24.69-39.44.78-.38 1.93-1.13 2.71-1.5-15.88-22.32-6.45-14.84-17.33-39.75h-3.01c11.04 23.89 3.28 16.47 16.73 39.75-14.05-23.48-6.7-16.06-17.93-39.75-21.89-.45-42.31 2.2-63.52 6.62-.68.42-3.23.48-3.91.9-3.21-1-6.52-1.2-9.93-.6-1.63 3.94-2.73 7.76-4.82 11.44-.8 2.01-1.46 4.32-1.96 6.92-.9 4.81-2.24 10.06-3.31 14.6-.5 2.11-1.16 3.57-1.96 4.37-1.83 2.61-2.98 2.39-5.42 1.51 3.23-13.2 6.69-26.6 11.14-39.44.88-1.63.62-2.88 1.51-4.52-.88 1.63-.63 2.89-1.51 4.52-4.89 12.92-8.6 25.61-12.64 38.84-1.7-.73-2.8-2.1-4.82-1.21-.57 1.66-1.25 4.62-1.2 6.02-.6.8-1.41 1.71-2.41 2.71-4.74 4.18-8.56 1.3-11.44-3.01-.89-1.79-1.33-2.55-2.11-4.52l1.2-3.01c7.25-19.47 11.16-38.22 19.27-57.8 6.48-13.77 11.1-30.27 16.86-44.26zm2.11 52.69c-.4.8-.8 2.01-1.2 3.61h.3c.2-.8.5-1.81.9-3.01zm14.75-32.52c-2.03 3.15-3.14 6.36-4.82 9.63l.3-.3c1.63-3.24 2.88-6.09 4.52-9.33zm9.33-7.22c-2.47 5.39-4.87 10.11-7.23 15.65 4.04-.86 8.06-1.16 12.04-2.41 9.12-1.88 18.7-3.72 28-2.41 2.43.45 4.49.15 6.92.6-8.14-20.85-14.86-41.98-19.57-64.12-.86 2.09-.95 3.04-1.81 5.12-5.71 16.32-10.55 32.18-18.36 47.57zm16.86 47.87c12.88-2.05 24.67-1.96 37.63-1.2-.45-.83-.15-1.27-.6-2.11-6.43 0-12.7-.25-18.82-.75s-12.3.35-18.51 2.56c.2.2.3.71.3 1.51zm34.32-8.73c-5.82-.44-12.35.24-18.06.6 6.17.44 12.39.27 18.67.3-.46-.42-.15-.47-.6-.9zm-11.44-35.53c.01 1.67-.54.83-1.5.9.78 2.44 1.93 4.49 2.71 6.92.8-.02 1.6.33 2.41.3l-3.61-8.13zm-.9 12.95c1.2.4 2.21.6 3.01.6-.76-.45-2.26-.15-3.01-.6zm7.22 1.2c-.78-.45-1.93-.15-2.71-.6v.3c.76.45 2.25.15 3.01.6zm9.64 21.68c-.75.03-2.26-.33-3.01-.3 0 .2.05.35.15.45s.15.35.15.75h3.01c0-.2-.05-.35-.15-.45s-.15-.25-.15-.45zm3.31 7.52c-.6-.8-1.01-1.6-1.2-2.41h-2.71c.2.6.5 1.31.9 2.11 1.2 0 2.21.1 3.01.3zm3.01-2.71c.88.76.62 2.25 1.51 3.01h-.3c-.4-.75-.8-2.26-1.2-3.01z" />
  <path
    d="m295.53 226.12c0 .2-.05.15-.15-.15s-.05.05.15 1.05c-.01.39 0 .98.15 1.21.43 3.02-.17 6.64-1.66 9.63-1.01 2.81-2.91 5.62-5.72 8.43.4-.2.8.2 1.2 1.21 2.81-2.21 5.01-5.01 6.62-8.43 1.6-3.21 2.41-6.52 2.41-9.94-.23-.37-.33-1.49-.3-2.41-.2-1.2-.25-1.6-.15-1.2s.15.4.15 0h-.3v-.6l-.3-.9c0-1-.41-2.3-1.2-3.91-.8-2.41-2.21-4.71-4.21-6.92-3.33-4.24-7.95-6.35-12.64-8.13-4.55-1.21-8.81-1.71-13.55-.9 7.76-1.15 14.62-.52 21.38 3.91 3.81 2.21 6.92 5.42 9.33 9.63 1 2.21 1.81 4.21 2.41 6.02v.9l.3.3v.3c.2 1.41.25 1.91.15 1.5-.1-.4-.15-.4-.15 0 .63 1.54.17 4.22 0 5.42-.35 5.24-3.93 12.04-8.13 15.35-3.82 3.29-8.02 4.41-12.34 5.42-3.61.6-7.22.6-10.84 0-4.07-1.05-8.04-2.22-11.74-5.42-1.8-.86-4.82-5.39-5.72-7.23-1.01-2.81-1.31-5.72-.9-8.73l-.6-.6c.45-.88.15-.62.6-1.5 1.15-5.34 4.22-11.57 8.73-14.75 4.62-3.61 9.43-4.92 14.45-3.91 3.35.89 6.89 1.63 9.93 3.61 3.21 2.06 6.76 5.11 7.83 9.03-1.41-5.02-4.32-8.53-8.73-10.54-3.81-2-7.83-2.91-12.04-2.71-4.88.05-9.53 1.45-13.55 4.82-4.42 3.11-7.77 9.09-9.33 14.15-2.33-2.42-2.98-5.88-1.51-9.33 1.84-4.24 5.43-7.9 8.73-10.84 3.23-2.19 7.29-3.91 10.84-4.82.42.73.48 2.58.9 3.31 8.9-3.37 18.09-.66 24.39 6.92 1.56 2 3.13 4.19 3.91 6.62l.9 3.61v.6l.3.6v.3zm-23.19 4.81v-.3h-.3zm.91.6c0-.2.1-.4.3-.6h-.3zm4.81 2.71c.15.15.45.45.6.6-.15-.15-.45-.45-.6-.6z" />
  <path
    d="m333.46 114.73c-.4 1.28-.87.3-1.5.3-.36 29.41-1.67 55.9-2.41 85.5.03-46.3.67-88.4 2.71-134.57v-7.83c2.81-7.95 3.76-14.91 4.21-23.18 1.97 1.41 5.28-.61 7.38 0 3.82 1.25 3.57 4.75 2.86 9.94.75.02 2.6-.12 3.31.3.4-1.6.8-3.01 1.2-4.21 2.2-5.6 8.54-14.63 14.3-8.88 1.5 1.51 2.56 4.06 3.16 7.68.8 4.42 1.15 9.18 1.05 14.3-.19 10.55-.95 21.18-1.5 31.91-.83 20.99 1.4 41.96-1.66 62.77-3.08 21.43-1.62 43.95-3.91 65.33-.47 4.28.58 9.42 1.05 13.85.34 3.77 1.17 7.78.15 10.84-.7 2.68-2.25 2.94-4.52 3.01-1.16-12.69-2.13-24.99-2.11-37.63.45-15.27.96-30.87 3.01-46.06-2.42 15.36-3.41 30.46-3.01 46.06-.43 12.45-.08 24.89.3 37.33-1.65-.38-3.25-.51-4.82.3.65 1.66-.08 4.36.6 6.02-2.52 7.1-7.77 8.1-13.55 3.61l-3.01-3.01.3-3.01c.6-19.23-1.73-36.37-.3-56 1.33-13.73.37-29.69.9-43.35-2.24 32.36-1.08 66.98-3.31 99.35-2.06-3.41-4.23-6.9-4.52-11.14-.43-11.13-.28-21.47-.3-32.51h3.31c-3.87-29.18 3.96-57.79.6-87z" />
  <path
    d="m459.89 226.12c0 .2-.05.15-.15-.15s-.05.05.15 1.05c-.01.39 0 .98.15 1.21.43 3.02-.17 6.64-1.66 9.63-1.01 2.81-2.91 5.62-5.72 8.43.4-.2.8.2 1.2 1.21 2.81-2.21 5.01-5.01 6.62-8.43 1.6-3.21 2.41-6.52 2.41-9.94-.23-.37-.33-1.49-.3-2.41-.2-1.2-.25-1.6-.15-1.2s.15.4.15 0h-.3v-.6l-.3-.9c0-1-.41-2.3-1.2-3.91-.8-2.41-2.21-4.71-4.21-6.92-3.33-4.24-7.95-6.35-12.64-8.13-4.55-1.21-8.81-1.71-13.55-.9 7.76-1.15 14.62-.52 21.38 3.91 3.81 2.21 6.92 5.42 9.33 9.63 1 2.21 1.81 4.21 2.41 6.02v.9l.3.3v.3c.2 1.41.25 1.91.15 1.5-.1-.4-.15-.4-.15 0 .63 1.54.17 4.22 0 5.42-.35 5.24-3.93 12.04-8.13 15.35-3.82 3.29-8.02 4.41-12.34 5.42-3.61.6-7.22.6-10.84 0-4.07-1.05-8.04-2.22-11.74-5.42-1.8-.86-4.82-5.39-5.72-7.23-1.01-2.81-1.31-5.72-.9-8.73l-.6-.6c.45-.88.15-.62.6-1.5 1.15-5.34 4.22-11.57 8.73-14.75 4.62-3.61 9.43-4.92 14.45-3.91 3.35.89 6.89 1.63 9.93 3.61 3.21 2.06 6.76 5.11 7.83 9.03-1.41-5.02-4.32-8.53-8.73-10.54-3.81-2-7.83-2.91-12.04-2.71-4.88.05-9.53 1.45-13.55 4.82-4.42 3.11-7.77 9.09-9.33 14.15-2.33-2.42-2.98-5.88-1.51-9.33 1.84-4.24 5.43-7.9 8.73-10.84 3.23-2.19 7.29-3.91 10.84-4.82.42.73.48 2.58.9 3.31 8.9-3.37 18.09-.66 24.39 6.92 1.56 2 3.13 4.19 3.91 6.62l.9 3.61v.6l.3.6v.3zm-23.18 4.81v-.3h-.3zm.91.6c0-.2.1-.4.3-.6h-.3zm4.81 2.71c.15.15.45.45.6.6-.15-.15-.45-.45-.6-.6z" />
</svg>
